<svg width="186" height="32" viewBox="0 0 186 32" fill="none" xmlns="http://www.w3.org/2000/svg">
<path fill-rule="evenodd" clip-rule="evenodd" d="M27.2411 31.5204H15.8166C7.09541 31.5204 0 24.4499 0 15.7602C0 7.07003 7.09541 0 15.8166 0C24.6855 0 31.633 6.73131 31.633 15.3237V31.4907H29.1785V15.3237C29.1785 8.1028 23.3097 2.44572 15.8166 2.44572C8.44874 2.44572 2.45445 8.41842 2.45445 15.7602C2.45445 23.1019 8.44874 29.0748 15.8166 29.0748H27.2411V31.5204Z" fill="#FF8300"/>
<path fill-rule="evenodd" clip-rule="evenodd" d="M23.2006 27.4771H15.8195C9.3344 27.4771 4.05829 22.2199 4.05829 15.7583C4.05829 9.29585 9.3344 4.03893 15.8195 4.03893C22.4147 4.03893 27.5808 9.09048 27.5808 15.5398V27.4486H25.1264V15.5398C25.1264 10.4618 21.0388 6.48475 15.8195 6.48475C10.6879 6.48475 6.51268 10.6448 6.51268 15.7583C6.51268 20.871 10.6879 25.0314 15.8195 25.0314H23.2006V27.4771Z" fill="#FFA34E"/>
<path fill-rule="evenodd" clip-rule="evenodd" d="M19.1602 23.4343H15.8231C11.5734 23.4343 8.11658 19.9903 8.11658 15.7558C8.11658 11.5218 11.5734 8.07736 15.8231 8.07736C20.0722 8.07736 23.529 11.5218 23.529 15.7558V23.4066H21.0746V15.7558C21.0746 12.8707 18.7189 10.523 15.8231 10.523C12.9267 10.523 10.571 12.8707 10.571 15.7558C10.571 18.6413 12.9267 20.9886 15.8231 20.9886H19.1602V23.4343Z" fill="#FFC894"/>
<path fill-rule="evenodd" clip-rule="evenodd" d="M83.163 17.5285C83.163 13.3884 86.2536 10.3837 90.4856 10.3837C93.0956 10.3837 95.3502 11.5449 96.819 13.7671L94.9456 15.029C94.007 13.2871 92.386 12.4034 90.4856 12.4034C87.5964 12.4034 85.4178 14.5243 85.4178 17.5285C85.4178 20.5331 87.5964 22.6291 90.4856 22.6291C92.512 22.6291 94.1336 21.67 95.3243 19.4974L97.0981 20.7853C95.68 23.3351 93.3483 24.6487 90.4856 24.6487C86.2536 24.6487 83.163 21.67 83.163 17.5285ZM48.123 20.7604H55.3706L57.2198 24.2952H59.6271L52.6079 10.6866H50.886L43.9424 24.2952H46.3246L48.123 20.7604ZM54.3572 18.7405H49.1627L51.7472 13.7157L54.3572 18.7405ZM67.2859 18.5382H72.1757L75.5978 24.2952H78.055L74.5827 18.4379C76.5094 17.9824 77.6996 16.4423 77.6996 14.5749C77.6996 12.1253 75.9518 10.6866 73.1645 10.6866H65.082V24.2952H67.2859V18.5382ZM67.2858 16.5187V12.6809H73.1394C74.6595 12.6809 75.4183 13.4127 75.4183 14.6255C75.4183 15.8621 74.6846 16.5187 73.0626 16.5187H67.2858ZM107.924 24.2941H109.114V11.797H114.867V10.6869H102.173V11.797H107.924V24.2941ZM118.789 17.5285C118.789 13.3884 121.677 10.3837 125.604 10.3837C129.557 10.3837 132.47 13.3884 132.47 17.5285C132.47 21.67 129.557 24.6487 125.63 24.6487C121.677 24.6487 118.789 21.67 118.789 17.5285ZM120.031 17.5283C120.031 21.0124 122.438 23.5117 125.604 23.5117C128.823 23.5117 131.204 20.9867 131.204 17.5283C131.204 14.044 128.823 11.5195 125.63 11.5195C122.438 11.5195 120.031 14.044 120.031 17.5283ZM138.539 10.6869V20.0285C138.539 23.31 139.983 24.6484 143.936 24.6484C147.863 24.6484 149.308 23.31 149.308 20.0285V10.6869H148.091V19.5737C148.091 22.6785 147.154 23.5126 143.91 23.5126C140.692 23.5126 139.729 22.6785 139.729 19.5737V10.6869H138.539ZM156.256 17.5285C156.256 13.3884 159.145 10.3837 163.072 10.3837C165.43 10.3837 167.456 11.4695 168.699 13.3631L167.71 14.0948C166.772 12.454 165.023 11.5196 163.072 11.5196C159.88 11.5196 157.499 14.0442 157.499 17.5285C157.499 21.0126 159.88 23.5119 163.072 23.5119C165.201 23.5119 166.923 22.4524 168.065 20.4318L169.028 21.1646C167.786 23.4115 165.658 24.6487 163.072 24.6487C159.145 24.6487 156.256 21.67 156.256 17.5285ZM175.975 17.3776H184.54V24.2952H185.73V10.6866H184.513V16.2663H175.949V10.6866H174.733V24.2952H175.975V17.3776Z" fill="#55565A"/>
</svg>
